<mxfile host="app.diagrams.net" modified="2020-09-16T06:05:21.271Z" agent="5.0 (Macintosh; Intel Mac OS X 10_13_6) AppleWebKit/537.36 (KHTML, like Gecko) Chrome/85.0.4183.102 Safari/537.36" etag="Tg81HP2D9-hIwP6Ya7mf" version="12.9.14" type="github">
  <diagram id="sUbWdNnlLa_JARHdcvYJ" name="Page-1">
    <mxGraphModel dx="1186" dy="837" grid="1" gridSize="10" guides="1" tooltips="1" connect="1" arrows="1" fold="1" page="1" pageScale="1" pageWidth="827" pageHeight="1169" math="0" shadow="0">
      <root>
        <mxCell id="0" />
        <mxCell id="1" parent="0" />
        <mxCell id="xG8ymXd8ooPqKKnghfI_-4" value="" style="edgeStyle=orthogonalEdgeStyle;rounded=0;orthogonalLoop=1;jettySize=auto;html=1;" edge="1" parent="1" source="xG8ymXd8ooPqKKnghfI_-1" target="xG8ymXd8ooPqKKnghfI_-2">
          <mxGeometry relative="1" as="geometry" />
        </mxCell>
        <mxCell id="xG8ymXd8ooPqKKnghfI_-1" value="" style="rounded=0;whiteSpace=wrap;html=1;" vertex="1" parent="1">
          <mxGeometry x="220" y="160" width="120" height="60" as="geometry" />
        </mxCell>
        <mxCell id="xG8ymXd8ooPqKKnghfI_-2" value="" style="rounded=0;whiteSpace=wrap;html=1;" vertex="1" parent="1">
          <mxGeometry x="420" y="160" width="120" height="60" as="geometry" />
        </mxCell>
      </root>
    </mxGraphModel>
  </diagram>
</mxfile>
